<?xml version="1.0" encoding="UTF-8" standalone="no"?>
<!DOCTYPE svg PUBLIC "-//W3C//DTD SVG 1.1//EN"
 "http://www.w3.org/Graphics/SVG/1.1/DTD/svg11.dtd">
<!-- Generated by graphviz version 2.38.0 (20140413.2041)
 -->
<!-- Title: %3 Pages: 1 -->
<svg width="1396pt" height="260pt"
 viewBox="0.00 0.00 1395.70 260.00" xmlns="http://www.w3.org/2000/svg" xmlns:xlink="http://www.w3.org/1999/xlink">
<g id="graph0" class="graph" transform="scale(1 1) rotate(0) translate(4 256)">
<title>%3</title>
<polygon fill="white" stroke="none" points="-4,4 -4,-256 1391.7,-256 1391.7,4 -4,4"/>
<!-- var -->
<g id="node1" class="node"><title>var</title>
<ellipse fill="none" stroke="black" cx="230.983" cy="-122" rx="27.0966" ry="18"/>
<text text-anchor="middle" x="230.983" y="-118.3" font-family="Times New Roman,serif" font-size="14.00">변수</text>
</g>
<!-- input -->
<g id="node2" class="node"><title>input</title>
<ellipse fill="none" stroke="black" cx="429.468" cy="-122" rx="44.393" ry="18"/>
<text text-anchor="middle" x="429.468" y="-118.3" font-family="Times New Roman,serif" font-size="14.00">입력(cin)</text>
</g>
<!-- var&#45;&gt;input -->
<g id="edge2" class="edge"><title>var&#45;&gt;input</title>
<path fill="none" stroke="black" d="M258.482,-122C288.164,-122 337.057,-122 374.806,-122"/>
<polygon fill="black" stroke="black" points="375.132,-125.5 385.132,-122 375.132,-118.5 375.132,-125.5"/>
</g>
<!-- operator -->
<g id="node4" class="node"><title>operator</title>
<ellipse fill="none" stroke="black" cx="429.468" cy="-68" rx="83.3857" ry="18"/>
<text text-anchor="middle" x="429.468" y="-64.3" font-family="Times New Roman,serif" font-size="14.00">연산자(+,&#45;,*,/ 등등)</text>
</g>
<!-- var&#45;&gt;operator -->
<g id="edge3" class="edge"><title>var&#45;&gt;operator</title>
<path fill="none" stroke="black" d="M256.47,-115.27C284.045,-107.692 329.889,-95.0923 367.316,-84.8065"/>
<polygon fill="black" stroke="black" points="368.414,-88.1346 377.129,-82.1096 366.559,-81.3849 368.414,-88.1346"/>
</g>
<!-- if_1 -->
<g id="node13" class="node"><title>if_1</title>
<ellipse fill="none" stroke="black" cx="600.656" cy="-72" rx="51.9908" ry="18"/>
<text text-anchor="middle" x="600.656" y="-68.3" font-family="Times New Roman,serif" font-size="14.00">조건문이란</text>
</g>
<!-- input&#45;&gt;if_1 -->
<g id="edge11" class="edge"><title>input&#45;&gt;if_1</title>
<path fill="none" stroke="black" d="M465.936,-111.518C490.531,-104.25 523.605,-94.4754 550.706,-86.4663"/>
<polygon fill="black" stroke="black" points="551.795,-89.794 560.393,-83.6033 549.811,-83.081 551.795,-89.794"/>
</g>
<!-- output -->
<g id="node3" class="node"><title>output</title>
<ellipse fill="none" stroke="black" cx="57.8449" cy="-68" rx="57.6901" ry="18"/>
<text text-anchor="middle" x="57.8449" y="-64.3" font-family="Times New Roman,serif" font-size="14.00">출력문(cout)</text>
</g>
<!-- output&#45;&gt;var -->
<g id="edge1" class="edge"><title>output&#45;&gt;var</title>
<path fill="none" stroke="black" d="M98.9691,-80.6606C128.534,-89.9892 168.294,-102.535 196.233,-111.351"/>
<polygon fill="black" stroke="black" points="195.36,-114.745 205.95,-114.417 197.467,-108.07 195.36,-114.745"/>
</g>
<!-- escape -->
<g id="node5" class="node"><title>escape</title>
<ellipse fill="none" stroke="black" cx="230.983" cy="-68" rx="79.0865" ry="18"/>
<text text-anchor="middle" x="230.983" y="-64.3" font-family="Times New Roman,serif" font-size="14.00">이스케이프 문자란</text>
</g>
<!-- output&#45;&gt;escape -->
<g id="edge4" class="edge"><title>output&#45;&gt;escape</title>
<path fill="none" stroke="black" d="M115.831,-68C124.078,-68 132.725,-68 141.413,-68"/>
<polygon fill="black" stroke="black" points="141.61,-71.5001 151.61,-68 141.61,-64.5001 141.61,-71.5001"/>
</g>
<!-- output&#45;&gt;if_1 -->
<g id="edge12" class="edge"><title>output&#45;&gt;if_1</title>
<path fill="none" stroke="black" d="M96.2582,-54.4988C112.979,-49.1509 133.077,-43.6515 151.69,-41 310.518,-18.3744 354.573,-13.675 512.661,-41 528.065,-43.6626 544.355,-48.7937 558.621,-54.1268"/>
<polygon fill="black" stroke="black" points="557.55,-57.4654 568.138,-57.8234 560.084,-50.9403 557.55,-57.4654"/>
</g>
<!-- loop -->
<g id="node6" class="node"><title>loop</title>
<ellipse fill="none" stroke="black" cx="862.439" cy="-72" rx="51.9908" ry="18"/>
<text text-anchor="middle" x="862.439" y="-68.3" font-family="Times New Roman,serif" font-size="14.00">반복문이란</text>
</g>
<!-- for -->
<g id="node7" class="node"><title>for</title>
<ellipse fill="none" stroke="black" cx="1004.38" cy="-126" rx="46.2923" ry="18"/>
<text text-anchor="middle" x="1004.38" y="-122.3" font-family="Times New Roman,serif" font-size="14.00">for문이란</text>
</g>
<!-- loop&#45;&gt;for -->
<g id="edge5" class="edge"><title>loop&#45;&gt;for</title>
<path fill="none" stroke="black" d="M898.032,-85.3483C917.09,-92.7026 940.9,-101.891 961.061,-109.67"/>
<polygon fill="black" stroke="black" points="960.039,-113.027 970.628,-113.362 962.559,-106.496 960.039,-113.027"/>
</g>
<!-- while -->
<g id="node10" class="node"><title>while</title>
<ellipse fill="none" stroke="black" cx="1004.38" cy="-72" rx="53.8905" ry="18"/>
<text text-anchor="middle" x="1004.38" y="-68.3" font-family="Times New Roman,serif" font-size="14.00">while문이란</text>
</g>
<!-- loop&#45;&gt;while -->
<g id="edge8" class="edge"><title>loop&#45;&gt;while</title>
<path fill="none" stroke="black" d="M914.754,-72C922.961,-72 931.538,-72 939.986,-72"/>
<polygon fill="black" stroke="black" points="940.194,-75.5001 950.194,-72 940.194,-68.5001 940.194,-75.5001"/>
</g>
<!-- array -->
<g id="node15" class="node"><title>array</title>
<ellipse fill="none" stroke="black" cx="1004.38" cy="-18" rx="44.393" ry="18"/>
<text text-anchor="middle" x="1004.38" y="-14.3" font-family="Times New Roman,serif" font-size="14.00">배열이란</text>
</g>
<!-- loop&#45;&gt;array -->
<g id="edge16" class="edge"><title>loop&#45;&gt;array</title>
<path fill="none" stroke="black" d="M898.032,-58.6517C917.456,-51.1562 941.817,-41.7558 962.219,-33.8832"/>
<polygon fill="black" stroke="black" points="963.509,-37.1368 971.579,-30.2714 960.989,-30.6062 963.509,-37.1368"/>
</g>
<!-- for_1d -->
<g id="node8" class="node"><title>for_1d</title>
<ellipse fill="none" stroke="black" cx="1158.67" cy="-207" rx="59.5901" ry="18"/>
<text text-anchor="middle" x="1158.67" y="-203.3" font-family="Times New Roman,serif" font-size="14.00">for문(1차원))</text>
</g>
<!-- for&#45;&gt;for_1d -->
<g id="edge6" class="edge"><title>for&#45;&gt;for_1d</title>
<path fill="none" stroke="black" d="M1032.61,-140.481C1056.71,-153.303 1092.17,-172.16 1119.17,-186.525"/>
<polygon fill="black" stroke="black" points="1117.87,-189.795 1128.34,-191.401 1121.16,-183.615 1117.87,-189.795"/>
</g>
<!-- loop_2 -->
<g id="node18" class="node"><title>loop_2</title>
<ellipse fill="none" stroke="black" cx="1158.67" cy="-126" rx="54.6905" ry="18"/>
<text text-anchor="middle" x="1158.67" y="-122.3" font-family="Times New Roman,serif" font-size="14.00">반복문 제어</text>
</g>
<!-- for&#45;&gt;loop_2 -->
<g id="edge17" class="edge"><title>for&#45;&gt;loop_2</title>
<path fill="none" stroke="black" d="M1050.66,-126C1064.14,-126 1079.16,-126 1093.6,-126"/>
<polygon fill="black" stroke="black" points="1093.97,-129.5 1103.97,-126 1093.97,-122.5 1093.97,-129.5"/>
</g>
<!-- for_2d -->
<g id="node9" class="node"><title>for_2d</title>
<ellipse fill="none" stroke="black" cx="1323.36" cy="-234" rx="56.59" ry="18"/>
<text text-anchor="middle" x="1323.36" y="-230.3" font-family="Times New Roman,serif" font-size="14.00">for문(2차원)</text>
</g>
<!-- for_1d&#45;&gt;for_2d -->
<g id="edge7" class="edge"><title>for_1d&#45;&gt;for_2d</title>
<path fill="none" stroke="black" d="M1211.59,-215.617C1227.84,-218.314 1245.9,-221.311 1262.64,-224.089"/>
<polygon fill="black" stroke="black" points="1262.43,-227.602 1272.87,-225.786 1263.58,-220.696 1262.43,-227.602"/>
</g>
<!-- while_1d -->
<g id="node11" class="node"><title>while_1d</title>
<ellipse fill="none" stroke="black" cx="1158.67" cy="-72" rx="64.189" ry="18"/>
<text text-anchor="middle" x="1158.67" y="-68.3" font-family="Times New Roman,serif" font-size="14.00">while문(1차원)</text>
</g>
<!-- while&#45;&gt;while_1d -->
<g id="edge9" class="edge"><title>while&#45;&gt;while_1d</title>
<path fill="none" stroke="black" d="M1058.64,-72C1066.9,-72 1075.56,-72 1084.17,-72"/>
<polygon fill="black" stroke="black" points="1084.24,-75.5001 1094.24,-72 1084.24,-68.5001 1084.24,-75.5001"/>
</g>
<!-- while&#45;&gt;loop_2 -->
<g id="edge18" class="edge"><title>while&#45;&gt;loop_2</title>
<path fill="none" stroke="black" d="M1042.25,-85.0719C1063.03,-92.4404 1089.18,-101.715 1111.34,-109.571"/>
<polygon fill="black" stroke="black" points="1110.29,-112.912 1120.88,-112.955 1112.63,-106.314 1110.29,-112.912"/>
</g>
<!-- while_2d -->
<g id="node12" class="node"><title>while_2d</title>
<ellipse fill="none" stroke="black" cx="1323.36" cy="-72" rx="64.189" ry="18"/>
<text text-anchor="middle" x="1323.36" y="-68.3" font-family="Times New Roman,serif" font-size="14.00">while문(2차원)</text>
</g>
<!-- while_1d&#45;&gt;while_2d -->
<g id="edge10" class="edge"><title>while_1d&#45;&gt;while_2d</title>
<path fill="none" stroke="black" d="M1223.04,-72C1231.5,-72 1240.24,-72 1248.86,-72"/>
<polygon fill="black" stroke="black" points="1248.9,-75.5001 1258.9,-72 1248.9,-68.5001 1248.9,-75.5001"/>
</g>
<!-- if_2 -->
<g id="node14" class="node"><title>if_2</title>
<ellipse fill="none" stroke="black" cx="731.548" cy="-72" rx="42.7926" ry="18"/>
<text text-anchor="middle" x="731.548" y="-68.3" font-family="Times New Roman,serif" font-size="14.00">조건문 if</text>
</g>
<!-- if_1&#45;&gt;if_2 -->
<g id="edge13" class="edge"><title>if_1&#45;&gt;if_2</title>
<path fill="none" stroke="black" d="M652.968,-72C661.353,-72 670.047,-72 678.451,-72"/>
<polygon fill="black" stroke="black" points="678.517,-75.5001 688.517,-72 678.517,-68.5001 678.517,-75.5001"/>
</g>
<!-- if_2&#45;&gt;loop -->
<g id="edge21" class="edge"><title>if_2&#45;&gt;loop</title>
<path fill="none" stroke="black" d="M774.752,-72C782.878,-72 791.543,-72 800.132,-72"/>
<polygon fill="black" stroke="black" points="800.145,-75.5001 810.145,-72 800.145,-68.5001 800.145,-75.5001"/>
</g>
<!-- array_1d -->
<g id="node16" class="node"><title>array_1d</title>
<ellipse fill="none" stroke="black" cx="1158.67" cy="-18" rx="50.8918" ry="18"/>
<text text-anchor="middle" x="1158.67" y="-14.3" font-family="Times New Roman,serif" font-size="14.00">1차원 배열</text>
</g>
<!-- array&#45;&gt;array_1d -->
<g id="edge14" class="edge"><title>array&#45;&gt;array_1d</title>
<path fill="none" stroke="black" d="M1048.61,-18C1063.91,-18 1081.39,-18 1097.82,-18"/>
<polygon fill="black" stroke="black" points="1097.88,-21.5001 1107.88,-18 1097.88,-14.5001 1097.88,-21.5001"/>
</g>
<!-- array_2d -->
<g id="node17" class="node"><title>array_2d</title>
<ellipse fill="none" stroke="black" cx="1323.36" cy="-18" rx="50.8918" ry="18"/>
<text text-anchor="middle" x="1323.36" y="-14.3" font-family="Times New Roman,serif" font-size="14.00">2차원 배열</text>
</g>
<!-- array_1d&#45;&gt;array_2d -->
<g id="edge15" class="edge"><title>array_1d&#45;&gt;array_2d</title>
<path fill="none" stroke="black" d="M1209.37,-18C1226.08,-18 1244.91,-18 1262.34,-18"/>
<polygon fill="black" stroke="black" points="1262.41,-21.5001 1272.41,-18 1262.41,-14.5001 1262.41,-21.5001"/>
</g>
<!-- break -->
<g id="node19" class="node"><title>break</title>
<ellipse fill="none" stroke="black" cx="1323.36" cy="-180" rx="38.9931" ry="18"/>
<text text-anchor="middle" x="1323.36" y="-176.3" font-family="Times New Roman,serif" font-size="14.00">break문</text>
</g>
<!-- loop_2&#45;&gt;break -->
<g id="edge19" class="edge"><title>loop_2&#45;&gt;break</title>
<path fill="none" stroke="black" d="M1197.81,-138.661C1222.94,-146.999 1255.8,-157.908 1281.46,-166.426"/>
<polygon fill="black" stroke="black" points="1280.67,-169.852 1291.27,-169.68 1282.88,-163.208 1280.67,-169.852"/>
</g>
<!-- continue -->
<g id="node20" class="node"><title>continue</title>
<ellipse fill="none" stroke="black" cx="1323.36" cy="-126" rx="50.0912" ry="18"/>
<text text-anchor="middle" x="1323.36" y="-122.3" font-family="Times New Roman,serif" font-size="14.00">continue문</text>
</g>
<!-- loop_2&#45;&gt;continue -->
<g id="edge20" class="edge"><title>loop_2&#45;&gt;continue</title>
<path fill="none" stroke="black" d="M1213.39,-126C1229.18,-126 1246.55,-126 1262.69,-126"/>
<polygon fill="black" stroke="black" points="1263.09,-129.5 1273.09,-126 1263.09,-122.5 1263.09,-129.5"/>
</g>
</g>
</svg>
