<?xml version="1.0" encoding="UTF-8" standalone="no"?>
<!DOCTYPE svg PUBLIC "-//W3C//DTD SVG 1.1//EN"
 "http://www.w3.org/Graphics/SVG/1.1/DTD/svg11.dtd">
<!-- Generated by graphviz version 2.38.0 (20140413.2041)
 -->
<!-- Title: %3 Pages: 1 -->
<svg width="1508pt" height="674pt"
 viewBox="0.00 0.00 1507.60 673.87" xmlns="http://www.w3.org/2000/svg" xmlns:xlink="http://www.w3.org/1999/xlink">
<g id="graph0" class="graph" transform="scale(1 1) rotate(0) translate(4 669.87)">
<title>%3</title>
<polygon fill="white" stroke="none" points="-4,4 -4,-669.87 1503.6,-669.87 1503.6,4 -4,4"/>
<!-- var -->
<g id="node1" class="node"><title>var</title>
<ellipse fill="none" stroke="black" cx="233.582" cy="-283.87" rx="27.0966" ry="18"/>
<text text-anchor="middle" x="233.582" y="-280.17" font-family="Times New Roman,serif" font-size="14.00">변수</text>
</g>
<!-- input -->
<g id="node2" class="node"><title>input</title>
<ellipse fill="none" stroke="black" cx="432.068" cy="-337.87" rx="44.393" ry="18"/>
<text text-anchor="middle" x="432.068" y="-334.17" font-family="Times New Roman,serif" font-size="14.00">입력(cin)</text>
</g>
<!-- var&#45;&gt;input -->
<g id="edge2" class="edge"><title>var&#45;&gt;input</title>
<path fill="none" stroke="black" d="M259.07,-290.6C290.556,-299.253 345.86,-314.452 385.256,-325.279"/>
<polygon fill="black" stroke="black" points="384.334,-328.656 394.904,-327.931 386.189,-321.906 384.334,-328.656"/>
</g>
<!-- operator -->
<g id="node4" class="node"><title>operator</title>
<ellipse fill="none" stroke="black" cx="432.068" cy="-283.87" rx="83.3857" ry="18"/>
<text text-anchor="middle" x="432.068" y="-280.17" font-family="Times New Roman,serif" font-size="14.00">연산자(+,&#45;,*,/ 등등)</text>
</g>
<!-- var&#45;&gt;operator -->
<g id="edge3" class="edge"><title>var&#45;&gt;operator</title>
<path fill="none" stroke="black" d="M261.081,-283.87C281.139,-283.87 309.971,-283.87 338.207,-283.87"/>
<polygon fill="black" stroke="black" points="338.566,-287.37 348.566,-283.87 338.566,-280.37 338.566,-287.37"/>
</g>
<!-- data_type -->
<g id="node36" class="node"><title>data_type</title>
<ellipse fill="none" stroke="black" cx="432.068" cy="-229.87" rx="35.9954" ry="18"/>
<text text-anchor="middle" x="432.068" y="-226.17" font-family="Times New Roman,serif" font-size="14.00">자료형</text>
</g>
<!-- var&#45;&gt;data_type -->
<g id="edge4" class="edge"><title>var&#45;&gt;data_type</title>
<path fill="none" stroke="black" d="M259.07,-277.14C292.004,-268.089 350.996,-251.876 390.584,-240.996"/>
<polygon fill="black" stroke="black" points="391.737,-244.309 400.451,-238.284 389.881,-237.56 391.737,-244.309"/>
</g>
<!-- if_1 -->
<g id="node13" class="node"><title>if_1</title>
<ellipse fill="none" stroke="black" cx="633.153" cy="-260.87" rx="51.9908" ry="18"/>
<text text-anchor="middle" x="633.153" y="-257.17" font-family="Times New Roman,serif" font-size="14.00">조건문이란</text>
</g>
<!-- input&#45;&gt;if_1 -->
<g id="edge12" class="edge"><title>input&#45;&gt;if_1</title>
<path fill="none" stroke="black" d="M468.096,-327.103C482.769,-322.402 499.943,-316.649 515.261,-310.87 540.92,-301.189 569.208,-289.127 591.528,-279.276"/>
<polygon fill="black" stroke="black" points="592.984,-282.459 600.703,-275.202 590.143,-276.061 592.984,-282.459"/>
</g>
<!-- output -->
<g id="node3" class="node"><title>output</title>
<ellipse fill="none" stroke="black" cx="59.1448" cy="-229.87" rx="57.6901" ry="18"/>
<text text-anchor="middle" x="59.1448" y="-226.17" font-family="Times New Roman,serif" font-size="14.00">출력문(cout)</text>
</g>
<!-- output&#45;&gt;var -->
<g id="edge1" class="edge"><title>output&#45;&gt;var</title>
<path fill="none" stroke="black" d="M100.574,-242.531C130.363,-251.859 170.425,-264.405 198.576,-273.221"/>
<polygon fill="black" stroke="black" points="197.778,-276.638 208.367,-276.287 199.87,-269.958 197.778,-276.638"/>
</g>
<!-- escape -->
<g id="node5" class="node"><title>escape</title>
<ellipse fill="none" stroke="black" cx="233.582" cy="-229.87" rx="79.0865" ry="18"/>
<text text-anchor="middle" x="233.582" y="-226.17" font-family="Times New Roman,serif" font-size="14.00">이스케이프 문자란</text>
</g>
<!-- output&#45;&gt;escape -->
<g id="edge5" class="edge"><title>output&#45;&gt;escape</title>
<path fill="none" stroke="black" d="M117.085,-229.87C125.71,-229.87 134.777,-229.87 143.882,-229.87"/>
<polygon fill="black" stroke="black" points="144.156,-233.37 154.156,-229.87 144.156,-226.37 144.156,-233.37"/>
</g>
<!-- output&#45;&gt;if_1 -->
<g id="edge13" class="edge"><title>output&#45;&gt;if_1</title>
<path fill="none" stroke="black" d="M98.0964,-216.368C115.054,-211.02 135.431,-205.521 154.29,-202.87 313.159,-180.539 359.065,-166.249 515.261,-202.87 545.502,-209.96 576.881,-226.093 599.503,-239.548"/>
<polygon fill="black" stroke="black" points="597.969,-242.712 608.33,-244.927 601.612,-236.734 597.969,-242.712"/>
</g>
<!-- loop -->
<g id="node6" class="node"><title>loop</title>
<ellipse fill="none" stroke="black" cx="924.834" cy="-260.87" rx="51.9908" ry="18"/>
<text text-anchor="middle" x="924.834" y="-257.17" font-family="Times New Roman,serif" font-size="14.00">반복문이란</text>
</g>
<!-- for -->
<g id="node7" class="node"><title>for</title>
<ellipse fill="none" stroke="black" cx="1066.77" cy="-341.87" rx="46.2923" ry="18"/>
<text text-anchor="middle" x="1066.77" y="-338.17" font-family="Times New Roman,serif" font-size="14.00">for문이란</text>
</g>
<!-- loop&#45;&gt;for -->
<g id="edge6" class="edge"><title>loop&#45;&gt;for</title>
<path fill="none" stroke="black" d="M950.252,-276.791C967.509,-287.854 991.307,-302.731 1012.83,-314.87 1017.72,-317.626 1022.92,-320.43 1028.07,-323.136"/>
<polygon fill="black" stroke="black" points="1026.75,-326.391 1037.24,-327.871 1029.96,-320.172 1026.75,-326.391"/>
</g>
<!-- while -->
<g id="node10" class="node"><title>while</title>
<ellipse fill="none" stroke="black" cx="1066.77" cy="-287.87" rx="53.8905" ry="18"/>
<text text-anchor="middle" x="1066.77" y="-284.17" font-family="Times New Roman,serif" font-size="14.00">while문이란</text>
</g>
<!-- loop&#45;&gt;while -->
<g id="edge9" class="edge"><title>loop&#45;&gt;while</title>
<path fill="none" stroke="black" d="M970.497,-269.487C982.99,-271.898 996.727,-274.548 1009.79,-277.068"/>
<polygon fill="black" stroke="black" points="1009.13,-280.505 1019.61,-278.963 1010.45,-273.632 1009.13,-280.505"/>
</g>
<!-- array -->
<g id="node15" class="node"><title>array</title>
<ellipse fill="none" stroke="black" cx="1066.77" cy="-233.87" rx="44.393" ry="18"/>
<text text-anchor="middle" x="1066.77" y="-230.17" font-family="Times New Roman,serif" font-size="14.00">배열이란</text>
</g>
<!-- loop&#45;&gt;array -->
<g id="edge17" class="edge"><title>loop&#45;&gt;array</title>
<path fill="none" stroke="black" d="M970.497,-252.253C985.055,-249.444 1001.3,-246.309 1016.2,-243.435"/>
<polygon fill="black" stroke="black" points="1017.1,-246.826 1026.26,-241.494 1015.78,-239.952 1017.1,-246.826"/>
</g>
<!-- function -->
<g id="node31" class="node"><title>function</title>
<ellipse fill="none" stroke="black" cx="1066.77" cy="-139.87" rx="35.9954" ry="18"/>
<text text-anchor="middle" x="1066.77" y="-136.17" font-family="Times New Roman,serif" font-size="14.00">함수란</text>
</g>
<!-- loop&#45;&gt;function -->
<g id="edge31" class="edge"><title>loop&#45;&gt;function</title>
<path fill="none" stroke="black" d="M945.292,-244.046C970.036,-222.65 1012.83,-185.652 1040.19,-161.991"/>
<polygon fill="black" stroke="black" points="1042.54,-164.591 1047.81,-155.402 1037.96,-159.295 1042.54,-164.591"/>
</g>
<!-- for_1d -->
<g id="node8" class="node"><title>for_1d</title>
<ellipse fill="none" stroke="black" cx="1221.06" cy="-422.87" rx="59.5901" ry="18"/>
<text text-anchor="middle" x="1221.06" y="-419.17" font-family="Times New Roman,serif" font-size="14.00">for문(1차원))</text>
</g>
<!-- for&#45;&gt;for_1d -->
<g id="edge7" class="edge"><title>for&#45;&gt;for_1d</title>
<path fill="none" stroke="black" d="M1095,-356.351C1119.11,-369.173 1154.56,-388.03 1181.57,-402.395"/>
<polygon fill="black" stroke="black" points="1180.26,-405.665 1190.74,-407.271 1183.55,-399.485 1180.26,-405.665"/>
</g>
<!-- loop_2 -->
<g id="node18" class="node"><title>loop_2</title>
<ellipse fill="none" stroke="black" cx="1221.06" cy="-341.87" rx="54.6905" ry="18"/>
<text text-anchor="middle" x="1221.06" y="-338.17" font-family="Times New Roman,serif" font-size="14.00">반복문 제어</text>
</g>
<!-- for&#45;&gt;loop_2 -->
<g id="edge18" class="edge"><title>for&#45;&gt;loop_2</title>
<path fill="none" stroke="black" d="M1113.05,-341.87C1126.53,-341.87 1141.56,-341.87 1155.99,-341.87"/>
<polygon fill="black" stroke="black" points="1156.37,-345.37 1166.37,-341.87 1156.37,-338.37 1156.37,-345.37"/>
</g>
<!-- for_2d -->
<g id="node9" class="node"><title>for_2d</title>
<ellipse fill="none" stroke="black" cx="1410.5" cy="-449.87" rx="56.59" ry="18"/>
<text text-anchor="middle" x="1410.5" y="-446.17" font-family="Times New Roman,serif" font-size="14.00">for문(2차원)</text>
</g>
<!-- for_1d&#45;&gt;for_2d -->
<g id="edge8" class="edge"><title>for_1d&#45;&gt;for_2d</title>
<path fill="none" stroke="black" d="M1275.28,-430.535C1298.19,-433.836 1325.11,-437.714 1348.81,-441.127"/>
<polygon fill="black" stroke="black" points="1348.34,-444.596 1358.74,-442.558 1349.34,-437.668 1348.34,-444.596"/>
</g>
<!-- while_1d -->
<g id="node11" class="node"><title>while_1d</title>
<ellipse fill="none" stroke="black" cx="1221.06" cy="-287.87" rx="64.189" ry="18"/>
<text text-anchor="middle" x="1221.06" y="-284.17" font-family="Times New Roman,serif" font-size="14.00">while문(1차원)</text>
</g>
<!-- while&#45;&gt;while_1d -->
<g id="edge10" class="edge"><title>while&#45;&gt;while_1d</title>
<path fill="none" stroke="black" d="M1121.04,-287.87C1129.3,-287.87 1137.96,-287.87 1146.57,-287.87"/>
<polygon fill="black" stroke="black" points="1146.63,-291.37 1156.63,-287.87 1146.63,-284.37 1146.63,-291.37"/>
</g>
<!-- while&#45;&gt;loop_2 -->
<g id="edge19" class="edge"><title>while&#45;&gt;loop_2</title>
<path fill="none" stroke="black" d="M1104.64,-300.942C1125.42,-308.31 1151.58,-317.585 1173.73,-325.441"/>
<polygon fill="black" stroke="black" points="1172.68,-328.782 1183.27,-328.825 1175.02,-322.184 1172.68,-328.782"/>
</g>
<!-- while_2d -->
<g id="node12" class="node"><title>while_2d</title>
<ellipse fill="none" stroke="black" cx="1410.5" cy="-287.87" rx="64.189" ry="18"/>
<text text-anchor="middle" x="1410.5" y="-284.17" font-family="Times New Roman,serif" font-size="14.00">while문(2차원)</text>
</g>
<!-- while_1d&#45;&gt;while_2d -->
<g id="edge11" class="edge"><title>while_1d&#45;&gt;while_2d</title>
<path fill="none" stroke="black" d="M1285.52,-287.87C1301.71,-287.87 1319.24,-287.87 1335.88,-287.87"/>
<polygon fill="black" stroke="black" points="1336.11,-291.37 1346.11,-287.87 1336.11,-284.37 1336.11,-291.37"/>
</g>
<!-- if_2 -->
<g id="node14" class="node"><title>if_2</title>
<ellipse fill="none" stroke="black" cx="793.942" cy="-260.87" rx="42.7926" ry="18"/>
<text text-anchor="middle" x="793.942" y="-257.17" font-family="Times New Roman,serif" font-size="14.00">조건문 if</text>
</g>
<!-- if_1&#45;&gt;if_2 -->
<g id="edge14" class="edge"><title>if_1&#45;&gt;if_2</title>
<path fill="none" stroke="black" d="M685.269,-260.87C703.004,-260.87 722.903,-260.87 740.725,-260.87"/>
<polygon fill="black" stroke="black" points="740.947,-264.37 750.946,-260.87 740.946,-257.37 740.947,-264.37"/>
</g>
<!-- if_2&#45;&gt;loop -->
<g id="edge22" class="edge"><title>if_2&#45;&gt;loop</title>
<path fill="none" stroke="black" d="M837.146,-260.87C845.273,-260.87 853.937,-260.87 862.527,-260.87"/>
<polygon fill="black" stroke="black" points="862.54,-264.37 872.54,-260.87 862.54,-257.37 862.54,-264.37"/>
</g>
<!-- array_1d -->
<g id="node16" class="node"><title>array_1d</title>
<ellipse fill="none" stroke="black" cx="1221.06" cy="-233.87" rx="50.8918" ry="18"/>
<text text-anchor="middle" x="1221.06" y="-230.17" font-family="Times New Roman,serif" font-size="14.00">1차원 배열</text>
</g>
<!-- array&#45;&gt;array_1d -->
<g id="edge15" class="edge"><title>array&#45;&gt;array_1d</title>
<path fill="none" stroke="black" d="M1111.01,-233.87C1126.3,-233.87 1143.79,-233.87 1160.21,-233.87"/>
<polygon fill="black" stroke="black" points="1160.27,-237.37 1170.27,-233.87 1160.27,-230.37 1160.27,-237.37"/>
</g>
<!-- array_2d -->
<g id="node17" class="node"><title>array_2d</title>
<ellipse fill="none" stroke="black" cx="1410.5" cy="-233.87" rx="50.8918" ry="18"/>
<text text-anchor="middle" x="1410.5" y="-230.17" font-family="Times New Roman,serif" font-size="14.00">2차원 배열</text>
</g>
<!-- array_1d&#45;&gt;array_2d -->
<g id="edge16" class="edge"><title>array_1d&#45;&gt;array_2d</title>
<path fill="none" stroke="black" d="M1271.8,-233.87C1295.63,-233.87 1324.37,-233.87 1349.41,-233.87"/>
<polygon fill="black" stroke="black" points="1349.53,-237.37 1359.53,-233.87 1349.53,-230.37 1349.53,-237.37"/>
</g>
<!-- break -->
<g id="node19" class="node"><title>break</title>
<ellipse fill="none" stroke="black" cx="1410.5" cy="-395.87" rx="38.9931" ry="18"/>
<text text-anchor="middle" x="1410.5" y="-392.17" font-family="Times New Roman,serif" font-size="14.00">break문</text>
</g>
<!-- loop_2&#45;&gt;break -->
<g id="edge20" class="edge"><title>loop_2&#45;&gt;break</title>
<path fill="none" stroke="black" d="M1262.74,-353.587C1293.63,-362.488 1336,-374.693 1367.27,-383.703"/>
<polygon fill="black" stroke="black" points="1366.43,-387.102 1377,-386.507 1368.36,-380.376 1366.43,-387.102"/>
</g>
<!-- continue -->
<g id="node20" class="node"><title>continue</title>
<ellipse fill="none" stroke="black" cx="1410.5" cy="-341.87" rx="50.0912" ry="18"/>
<text text-anchor="middle" x="1410.5" y="-338.17" font-family="Times New Roman,serif" font-size="14.00">continue문</text>
</g>
<!-- loop_2&#45;&gt;continue -->
<g id="edge21" class="edge"><title>loop_2&#45;&gt;continue</title>
<path fill="none" stroke="black" d="M1275.78,-341.87C1298.96,-341.87 1326.16,-341.87 1349.96,-341.87"/>
<polygon fill="black" stroke="black" points="1350.27,-345.37 1360.27,-341.87 1350.27,-338.37 1350.27,-345.37"/>
</g>
<!-- sort -->
<g id="node21" class="node"><title>sort</title>
<ellipse fill="none" stroke="black" cx="59.1448" cy="-364.87" rx="44.393" ry="18"/>
<text text-anchor="middle" x="59.1448" y="-361.17" font-family="Times New Roman,serif" font-size="14.00">정렬이란</text>
</g>
<!-- bubble_sort -->
<g id="node22" class="node"><title>bubble_sort</title>
<ellipse fill="none" stroke="black" cx="233.582" cy="-364.87" rx="46.2923" ry="18"/>
<text text-anchor="middle" x="233.582" y="-361.17" font-family="Times New Roman,serif" font-size="14.00">버블 정렬</text>
</g>
<!-- sort&#45;&gt;bubble_sort -->
<g id="edge23" class="edge"><title>sort&#45;&gt;bubble_sort</title>
<path fill="none" stroke="black" d="M103.658,-364.87C125.907,-364.87 153.232,-364.87 176.991,-364.87"/>
<polygon fill="black" stroke="black" points="177.277,-368.37 187.276,-364.87 177.276,-361.37 177.277,-368.37"/>
</g>
<!-- data_structure -->
<g id="node23" class="node"><title>data_structure</title>
<ellipse fill="none" stroke="black" cx="59.1448" cy="-431.87" rx="54.6905" ry="18"/>
<text text-anchor="middle" x="59.1448" y="-428.17" font-family="Times New Roman,serif" font-size="14.00">자료 구조란</text>
</g>
<!-- linear -->
<g id="node24" class="node"><title>linear</title>
<ellipse fill="none" stroke="black" cx="233.582" cy="-479.87" rx="63.0888" ry="18"/>
<text text-anchor="middle" x="233.582" y="-476.17" font-family="Times New Roman,serif" font-size="14.00">선형 자료구조</text>
</g>
<!-- data_structure&#45;&gt;linear -->
<g id="edge24" class="edge"><title>data_structure&#45;&gt;linear</title>
<path fill="none" stroke="black" d="M101.448,-443.367C124.406,-449.758 153.258,-457.789 178.05,-464.69"/>
<polygon fill="black" stroke="black" points="177.113,-468.063 187.685,-467.372 178.99,-461.319 177.113,-468.063"/>
</g>
<!-- Nonlinear -->
<g id="node25" class="node"><title>Nonlinear</title>
<ellipse fill="none" stroke="black" cx="233.582" cy="-425.87" rx="71.4873" ry="18"/>
<text text-anchor="middle" x="233.582" y="-422.17" font-family="Times New Roman,serif" font-size="14.00">비선형 자료구조</text>
</g>
<!-- data_structure&#45;&gt;Nonlinear -->
<g id="edge25" class="edge"><title>data_structure&#45;&gt;Nonlinear</title>
<path fill="none" stroke="black" d="M113.76,-430.005C125.93,-429.581 139.116,-429.122 152.126,-428.67"/>
<polygon fill="black" stroke="black" points="152.628,-432.154 162.5,-428.309 152.384,-425.159 152.628,-432.154"/>
</g>
<!-- tree -->
<g id="node26" class="node"><title>tree</title>
<ellipse fill="none" stroke="black" cx="432.068" cy="-445.87" rx="35.9954" ry="18"/>
<text text-anchor="middle" x="432.068" y="-442.17" font-family="Times New Roman,serif" font-size="14.00">트리란</text>
</g>
<!-- Nonlinear&#45;&gt;tree -->
<g id="edge26" class="edge"><title>Nonlinear&#45;&gt;tree</title>
<path fill="none" stroke="black" d="M300.009,-432.53C328.463,-435.426 361.067,-438.745 386.637,-441.347"/>
<polygon fill="black" stroke="black" points="386.473,-444.849 396.776,-442.38 387.182,-437.885 386.473,-444.849"/>
</g>
<!-- graph -->
<g id="node27" class="node"><title>graph</title>
<ellipse fill="none" stroke="black" cx="432.068" cy="-391.87" rx="44.393" ry="18"/>
<text text-anchor="middle" x="432.068" y="-388.17" font-family="Times New Roman,serif" font-size="14.00">그래프란</text>
</g>
<!-- Nonlinear&#45;&gt;graph -->
<g id="edge27" class="edge"><title>Nonlinear&#45;&gt;graph</title>
<path fill="none" stroke="black" d="M293.003,-415.761C321.089,-410.901 354.402,-405.136 381.268,-400.487"/>
<polygon fill="black" stroke="black" points="381.968,-403.918 391.225,-398.765 380.775,-397.021 381.968,-403.918"/>
</g>
<!-- binary_tree -->
<g id="node28" class="node"><title>binary_tree</title>
<ellipse fill="none" stroke="black" cx="633.153" cy="-499.87" rx="46.2923" ry="18"/>
<text text-anchor="middle" x="633.153" y="-496.17" font-family="Times New Roman,serif" font-size="14.00">이진 트리</text>
</g>
<!-- tree&#45;&gt;binary_tree -->
<g id="edge28" class="edge"><title>tree&#45;&gt;binary_tree</title>
<path fill="none" stroke="black" d="M464.175,-454.308C496.601,-463.103 547.805,-476.991 585.164,-487.125"/>
<polygon fill="black" stroke="black" points="584.256,-490.505 594.824,-489.745 586.089,-483.749 584.256,-490.505"/>
</g>
<!-- segment_tree -->
<g id="node29" class="node"><title>segment_tree</title>
<ellipse fill="none" stroke="black" cx="633.153" cy="-445.87" rx="63.0888" ry="18"/>
<text text-anchor="middle" x="633.153" y="-442.17" font-family="Times New Roman,serif" font-size="14.00">세그먼트 트리</text>
</g>
<!-- tree&#45;&gt;segment_tree -->
<g id="edge29" class="edge"><title>tree&#45;&gt;segment_tree</title>
<path fill="none" stroke="black" d="M468.202,-445.87C493.475,-445.87 528.456,-445.87 559.617,-445.87"/>
<polygon fill="black" stroke="black" points="560.019,-449.37 570.019,-445.87 560.019,-442.37 560.019,-449.37"/>
</g>
<!-- Mo&#39;s Algorithm -->
<g id="node30" class="node"><title>Mo&#39;s Algorithm</title>
<ellipse fill="none" stroke="black" cx="633.153" cy="-391.87" rx="81.7856" ry="18"/>
<text text-anchor="middle" x="633.153" y="-388.17" font-family="Times New Roman,serif" font-size="14.00">평방 분할 알고리즘</text>
</g>
<!-- tree&#45;&gt;Mo&#39;s Algorithm -->
<g id="edge30" class="edge"><title>tree&#45;&gt;Mo&#39;s Algorithm</title>
<path fill="none" stroke="black" d="M464.175,-437.433C492.664,-429.705 535.649,-418.046 571.004,-408.456"/>
<polygon fill="black" stroke="black" points="572.02,-411.807 580.755,-405.811 570.187,-405.051 572.02,-411.807"/>
</g>
<!-- recursion -->
<g id="node32" class="node"><title>recursion</title>
<ellipse fill="none" stroke="black" cx="1221.06" cy="-118.87" rx="44.393" ry="18"/>
<text text-anchor="middle" x="1221.06" y="-115.17" font-family="Times New Roman,serif" font-size="14.00">재귀함수</text>
</g>
<!-- function&#45;&gt;recursion -->
<g id="edge32" class="edge"><title>function&#45;&gt;recursion</title>
<path fill="none" stroke="black" d="M1101.57,-135.209C1121.41,-132.475 1146.86,-128.965 1169.09,-125.899"/>
<polygon fill="black" stroke="black" points="1169.62,-129.36 1179.04,-124.527 1168.66,-122.426 1169.62,-129.36"/>
</g>
<!-- fibonacci -->
<g id="node33" class="node"><title>fibonacci</title>
<ellipse fill="none" stroke="black" cx="1410.5" cy="-170.87" rx="86.0347" ry="26.7407"/>
<text text-anchor="middle" x="1410.5" y="-174.67" font-family="Times New Roman,serif" font-size="14.00">재귀함수를 이용한</text>
<text text-anchor="middle" x="1410.5" y="-159.67" font-family="Times New Roman,serif" font-size="14.00">피보나치 수열</text>
</g>
<!-- recursion&#45;&gt;fibonacci -->
<g id="edge33" class="edge"><title>recursion&#45;&gt;fibonacci</title>
<path fill="none" stroke="black" d="M1258.2,-128.896C1280.19,-134.994 1309.07,-143.006 1335.7,-150.395"/>
<polygon fill="black" stroke="black" points="1334.82,-153.783 1345.39,-153.084 1336.69,-147.038 1334.82,-153.783"/>
</g>
<!-- hanoi -->
<g id="node34" class="node"><title>hanoi</title>
<ellipse fill="none" stroke="black" cx="1410.5" cy="-98.8701" rx="77.5641" ry="26.7407"/>
<text text-anchor="middle" x="1410.5" y="-102.67" font-family="Times New Roman,serif" font-size="14.00">재귀함수를</text>
<text text-anchor="middle" x="1410.5" y="-87.6701" font-family="Times New Roman,serif" font-size="14.00">이용한 하노이탑</text>
</g>
<!-- recursion&#45;&gt;hanoi -->
<g id="edge34" class="edge"><title>recursion&#45;&gt;hanoi</title>
<path fill="none" stroke="black" d="M1264.13,-114.382C1282.39,-112.433 1304.46,-110.078 1325.83,-107.799"/>
<polygon fill="black" stroke="black" points="1326.33,-111.264 1335.91,-106.723 1325.59,-104.304 1326.33,-111.264"/>
</g>
<!-- gcd -->
<g id="node35" class="node"><title>gcd</title>
<ellipse fill="none" stroke="black" cx="1410.5" cy="-26.8701" rx="89.191" ry="26.7407"/>
<text text-anchor="middle" x="1410.5" y="-30.6701" font-family="Times New Roman,serif" font-size="14.00">재귀함수를 이용해</text>
<text text-anchor="middle" x="1410.5" y="-15.6701" font-family="Times New Roman,serif" font-size="14.00">최대 공약수 구하기</text>
</g>
<!-- recursion&#45;&gt;gcd -->
<g id="edge35" class="edge"><title>recursion&#45;&gt;gcd</title>
<path fill="none" stroke="black" d="M1246.51,-103.952C1266.34,-92.1288 1295.21,-75.5456 1321.41,-62.8701 1329.19,-59.1058 1337.47,-55.3767 1345.72,-51.8256"/>
<polygon fill="black" stroke="black" points="1347.15,-55.0214 1354.99,-47.8995 1344.42,-48.5754 1347.15,-55.0214"/>
</g>
<!-- quick_sort -->
<g id="node37" class="node"><title>quick_sort</title>
<ellipse fill="none" stroke="black" cx="59.1448" cy="-485.87" rx="38.1938" ry="18"/>
<text text-anchor="middle" x="59.1448" y="-482.17" font-family="Times New Roman,serif" font-size="14.00">퀵 정렬</text>
</g>
<!-- std::sort -->
<g id="node38" class="node"><title>std::sort</title>
<ellipse fill="none" stroke="black" cx="59.1448" cy="-539.87" rx="59.2899" ry="18"/>
<text text-anchor="middle" x="59.1448" y="-536.17" font-family="Times New Roman,serif" font-size="14.00">std::sort 활용</text>
</g>
<!-- structure -->
<g id="node39" class="node"><title>structure</title>
<ellipse fill="none" stroke="black" cx="59.1448" cy="-593.87" rx="44.393" ry="18"/>
<text text-anchor="middle" x="59.1448" y="-590.17" font-family="Times New Roman,serif" font-size="14.00">구조체란</text>
</g>
<!-- structure_sort -->
<g id="node40" class="node"><title>structure_sort</title>
<ellipse fill="none" stroke="black" cx="59.1448" cy="-647.87" rx="54.6905" ry="18"/>
<text text-anchor="middle" x="59.1448" y="-644.17" font-family="Times New Roman,serif" font-size="14.00">구조체 정렬</text>
</g>
</g>
</svg>
